<?xml version="1.0" encoding="UTF-8" standalone="no"?>
<!-- Created with Inkscape (http://www.inkscape.org/) -->

<svg
   xmlns:dc="http://purl.org/dc/elements/1.1/"
   xmlns:cc="http://creativecommons.org/ns#"
   xmlns:rdf="http://www.w3.org/1999/02/22-rdf-syntax-ns#"
   xmlns:svg="http://www.w3.org/2000/svg"
   xmlns="http://www.w3.org/2000/svg"
   xmlns:sodipodi="http://sodipodi.sourceforge.net/DTD/sodipodi-0.dtd"
   xmlns:inkscape="http://www.inkscape.org/namespaces/inkscape"
   width="277.75275"
   height="480.73145"
   id="svg2"
   version="1.1"
   inkscape:version="0.48.5 r10040"
   sodipodi:docname="old.svg">
  <defs
     id="defs4" />
  <sodipodi:namedview
     id="base"
     pagecolor="#ffffff"
     bordercolor="#666666"
     borderopacity="1.0"
     inkscape:pageopacity="0.0"
     inkscape:pageshadow="2"
     inkscape:zoom="11.2"
     inkscape:cx="57.836914"
     inkscape:cy="228.2708"
     inkscape:document-units="px"
     inkscape:current-layer="layer1"
     showgrid="false"
     inkscape:snap-global="true"
     fit-margin-top="0"
     fit-margin-left="0"
     fit-margin-right="0"
     fit-margin-bottom="0"
     inkscape:window-width="1407"
     inkscape:window-height="855"
     inkscape:window-x="33"
     inkscape:window-y="0"
     inkscape:window-maximized="1" />
  <metadata
     id="metadata7">
    <rdf:RDF>
      <cc:Work
         rdf:about="">
        <dc:format>image/svg+xml</dc:format>
        <dc:type
           rdf:resource="http://purl.org/dc/dcmitype/StillImage" />
        <dc:title></dc:title>
      </cc:Work>
    </rdf:RDF>
  </metadata>
  <g
     inkscape:label="Ebene 1"
     inkscape:groupmode="layer"
     id="layer1"
     transform="translate(-225.72559,-268.77351)">
    <path
       sodipodi:type="arc"
       style="fill:#e3dedb;fill-opacity:1;stroke-width:4;stroke-miterlimit:4;stroke-dasharray:none"
       id="path3004"
       sodipodi:cx="74.751289"
       sodipodi:cy="425.56253"
       sodipodi:rx="30.809652"
       sodipodi:ry="30.809652"
       d="m 105.56094,425.56253 c 0,17.0157 -13.79395,30.80965 -30.809651,30.80965 -17.015701,0 -30.809652,-13.79395 -30.809652,-30.80965 0,-17.0157 13.793951,-30.80965 30.809652,-30.80965 17.015701,0 30.809651,13.79395 30.809651,30.80965 z"
       transform="matrix(1.2868852,0,0,1.2868852,218.58131,-239.22813)" />
    <rect
       style="fill:#e3dedb;fill-opacity:1;stroke:none"
       id="rect3781"
       width="20.708128"
       height="243.95184"
       x="225.7691"
       y="505.36456"
       rx="10.354064"
       ry="11.573383" />
    <path
       sodipodi:type="arc"
       style="fill:none;stroke:#e3dedb;stroke-width:37.06243515;stroke-miterlimit:4;stroke-opacity:1;stroke-dasharray:none"
       id="path3791"
       sodipodi:cx="128.28937"
       sodipodi:cy="611.4306"
       sodipodi:rx="52.022858"
       sodipodi:ry="52.022858"
       d="m 180.31223,611.4306 c 0,28.73143 -23.29143,52.02286 -52.02286,52.02286 -28.731433,0 -52.02286,-23.29143 -52.02286,-52.02286 0,-0.17515 8.85e-4,-0.35031 0.0027,-0.52545"
       sodipodi:start="0"
       sodipodi:end="3.1516933"
       sodipodi:open="true"
       transform="matrix(-0.55791622,0.03019759,-0.03019759,-0.55791622,355.18568,855.02444)" />
    <path
       style="fill:#e3dedb;fill-opacity:1;stroke:none"
       d="m 294.11707,505.33797 c -5.7429,0 -10.354,4.55417 -10.354,10.22618 0,5.672 4.6111,10.48182 10.354,10.48182 5.7429,0 10.354,-4.80982 10.354,-10.48182 0,-5.67201 -4.6111,-10.22618 -10.354,-10.22618 z"
       id="path3819"
       inkscape:connector-curvature="0" />
    <rect
       style="fill:#e3dedb;fill-opacity:1;stroke:none"
       id="rect3823"
       width="59.285713"
       height="232.85713"
       x="407.85715"
       y="516.64783"
       rx="29.642857"
       ry="31.347519" />
    <path
       style="fill:none;stroke:none"
       d="m 435.88082,411.92547 c 0.33672,0.67343 0.62278,1.37468 1.01016,2.0203 0.1225,0.20417 0.373,0.30697 0.50507,0.50508 0.20883,0.31323 0.29626,0.69692 0.50508,1.01015 0.13207,0.19811 0.373,0.30697 0.50507,0.50508 0.78637,1.17955 1.23394,2.86106 2.02031,4.04061 0.13207,0.19811 0.373,0.30697 0.50508,0.50508 0.20882,0.31323 0.33671,0.67343 0.50507,1.01015 0.67344,1.34687 1.34687,2.69374 2.02031,4.04061 0.33672,0.67343 0.5925,1.39383 1.01015,2.0203 0.13207,0.19811 0.33672,0.33672 0.50508,0.50508 0.16836,0.33672 0.29625,0.69692 0.50507,1.01015 0.26415,0.39622 0.7972,0.58424 1.01016,1.01015 0.0753,0.15059 -0.0753,0.3545 0,0.50508 0.21295,0.42592 0.79719,0.58424 1.01015,1.01015 0.0753,0.15059 -0.0753,0.35449 0,0.50508 0.10648,0.21296 0.39859,0.29212 0.50507,0.50508 0.0753,0.15058 -0.0753,0.35449 0,0.50507 0.10648,0.21296 0.3986,0.29212 0.50508,0.50508 0.0753,0.15058 -0.0753,0.35449 0,0.50507 0.10648,0.21296 0.3986,0.29212 0.50508,0.50508 0.0753,0.15059 -0.11905,0.38603 0,0.50508 0.11904,0.11904 0.38603,-0.11905 0.50507,0 0.25254,0.25254 -0.25254,1.26269 0,1.51523 0.11905,0.11904 0.38603,-0.11905 0.50508,0 0.23809,0.23809 -0.15059,0.70898 0,1.01015 0.10648,0.21296 0.3986,0.29212 0.50508,0.50507 0.0753,0.15059 -0.11905,0.38603 0,0.50508 0.11904,0.11905 0.38602,-0.11905 0.50507,0 1.04502,1.04502 -1.59693,-0.0408 0.50508,1.01015 0.80812,0.40406 0.37039,-0.2357 0.50507,-0.50507 0.10648,-0.21296 0.3986,-0.29212 0.50508,-0.50508 0.0753,-0.15058 -0.0753,-0.35449 0,-0.50508 0.10648,-0.21295 0.3986,-0.29211 0.50508,-0.50507 0.0753,-0.15059 -0.0753,-0.35449 0,-0.50508 0.10648,-0.21296 0.39859,-0.29212 0.50507,-0.50507 0.0753,-0.15059 -0.0753,-0.3545 0,-0.50508 0.10648,-0.21296 0.3986,-0.29212 0.50508,-0.50508 0.15058,-0.30117 -0.15059,-0.70898 0,-1.01015 0.10648,-0.21296 0.3986,-0.29212 0.50508,-0.50508 0.15058,-0.30116 -0.15059,-0.70898 0,-1.01015 0.10648,-0.21296 0.39859,-0.29212 0.50507,-0.50507 0.15059,-0.30117 -0.15058,-0.70899 0,-1.01016 0.10648,-0.21296 0.3986,-0.29211 0.50508,-0.50507 0.20203,-0.40406 -0.20203,-1.11117 0,-1.51523 0.10648,-0.21296 0.3986,-0.29212 0.50507,-0.50508 0.15059,-0.30117 -0.15058,-0.70898 0,-1.01015 0.10648,-0.21296 0.3986,-0.29212 0.50508,-0.50508 0.0753,-0.15058 -0.0753,-0.35449 0,-0.50507 0.10648,-0.21296 0.3986,-0.29212 0.50508,-0.50508 0.0753,-0.15058 -0.0753,-0.35449 0,-0.50508 0.10648,-0.21295 0.39859,-0.29211 0.50507,-0.50507 0.0753,-0.15059 -0.11904,-0.38603 0,-0.50508 0.11905,-0.11905 0.38603,0.11905 0.50508,0 0.11905,-0.11905 -0.0753,-0.35449 0,-0.50507 0.10648,-0.21296 0.3986,-0.29212 0.50508,-0.50508 0.0753,-0.15059 -0.0753,-0.35449 0,-0.50508 0.10648,-0.21296 0.39859,-0.29211 0.50507,-0.50507 0.0753,-0.15059 -0.11905,-0.38603 0,-0.50508 0.11905,-0.11905 0.38603,0.11905 0.50508,0 0.23809,-0.23809 -0.2381,-0.77206 0,-1.01015 0.11905,-0.11905 0.38603,0.11905 0.50507,0 0.11905,-0.11905 -0.0753,-0.35449 0,-0.50508 0.10648,-0.21296 0.50508,-0.26698 0.50508,-0.50507 0,-0.16836 -0.33672,0 -0.50508,0 -0.33671,0 -0.67343,0 -1.01015,0 -0.358,0 -2.89987,0.0653 -3.03046,0 -0.21295,-0.10648 -0.29211,-0.3986 -0.50507,-0.50508 -0.30117,-0.15059 -0.70899,0.15058 -1.01015,0 -0.21296,-0.10648 -0.29212,-0.3986 -0.50508,-0.50508 -0.15059,-0.0753 -0.35449,0.0753 -0.50508,0 -0.21296,-0.10648 -0.29211,-0.39859 -0.50507,-0.50507 -0.20026,-0.10013 -1.41198,0.10325 -1.51523,0 -0.11905,-0.11905 0.11905,-0.38603 0,-0.50508 -0.12154,-0.12154 -1.89877,0.12154 -2.02031,0 -0.11904,-0.11905 0.11905,-0.38603 0,-0.50508 -0.11904,-0.11904 -0.35449,0.0753 -0.50507,0 -0.21296,-0.10648 -0.29212,-0.39859 -0.50508,-0.50507 -0.30117,-0.15059 -0.77206,0.23809 -1.01015,0 -0.11905,-0.11905 0.11905,-0.38603 0,-0.50508 -0.2381,-0.23809 -0.77206,0.2381 -1.01015,0 -0.11905,-0.11905 0.11904,-0.38603 0,-0.50508 -0.11905,-0.11904 -0.3545,0.0753 -0.50508,0 -0.21296,-0.10647 -0.29212,-0.39859 -0.50508,-0.50507 -0.15058,-0.0753 -0.35449,0.0753 -0.50507,0 -0.21296,-0.10648 -0.29212,-0.3986 -0.50508,-0.50508 -0.15058,-0.0753 -0.35449,0.0753 -0.50508,0 -0.21295,-0.10648 -0.29211,-0.39859 -0.50507,-0.50507 -0.15059,-0.0753 -0.35449,0.0753 -0.50508,0 -0.21296,-0.10648 -0.29212,-0.3986 -0.50507,-0.50508 -0.15059,-0.0753 -0.3545,0.0753 -0.50508,0 -0.42592,-0.21296 -0.58424,-0.79719 -1.01015,-1.01015 -0.15059,-0.0753 -0.3545,0.0753 -0.50508,0 -0.60609,-0.30305 -0.90914,-1.21219 -1.51523,-1.51523 -1.48634,-0.74317 0.66498,1.17005 -1.01015,-0.50508"
       id="path3883"
       inkscape:connector-curvature="0" />
    <rect
       style="fill:#e3dedb;fill-opacity:1;stroke:none"
       id="rect3889"
       width="70.088173"
       height="244.78726"
       x="130.55618"
       y="480.45282"
       rx="35.044086"
       ry="40.406128"
       transform="matrix(0.86963539,-0.49369452,0.43723356,0.89934799,0,0)" />
    <rect
       style="fill:#e3dedb;fill-opacity:1;stroke:none"
       id="rect3893"
       width="33.272312"
       height="163.37637"
       x="512.55371"
       y="43.619991"
       rx="14.10677"
       ry="18.420792"
       transform="matrix(0.74932234,0.66220543,-0.71381939,0.70032984,0,0)" />
    <rect
       style="fill:#e3dedb;fill-opacity:1;stroke:none"
       id="rect3895"
       width="107.60089"
       height="32.485531"
       x="-209.6868"
       y="605.60712"
       rx="14.048369"
       ry="18.349924"
       transform="matrix(0.47309962,-0.88100894,0.86822323,0.49617378,0,0)" />
    <rect
       style="fill:#e3dedb;fill-opacity:1;stroke:none"
       id="rect3897"
       width="147.11664"
       height="35.891701"
       x="521.7652"
       y="182.59415"
       rx="13.391635"
       ry="16.52206"
       transform="matrix(0.92321948,0.38427306,-0.58980339,0.80754688,0,0)" />
  </g>
</svg>
