<?xml version="1.0" encoding="UTF-8" standalone="no"?>
<!-- Created with Inkscape (http://www.inkscape.org/) -->

<svg
   xmlns:dc="http://purl.org/dc/elements/1.1/"
   xmlns:cc="http://creativecommons.org/ns#"
   xmlns:rdf="http://www.w3.org/1999/02/22-rdf-syntax-ns#"
   xmlns:svg="http://www.w3.org/2000/svg"
   xmlns="http://www.w3.org/2000/svg"
   xmlns:sodipodi="http://sodipodi.sourceforge.net/DTD/sodipodi-0.dtd"
   xmlns:inkscape="http://www.inkscape.org/namespaces/inkscape"
   width="285.66583"
   height="253.90845"
   id="svg2"
   version="1.1"
   inkscape:version="0.48.5 r10040"
   sodipodi:docname="404.svg">
  <defs
     id="defs4" />
  <sodipodi:namedview
     id="base"
     pagecolor="#ffffff"
     bordercolor="#666666"
     borderopacity="1.0"
     inkscape:pageopacity="0.0"
     inkscape:pageshadow="2"
     inkscape:zoom="1.2610071"
     inkscape:cx="-189.46998"
     inkscape:cy="66.173734"
     inkscape:document-units="px"
     inkscape:current-layer="layer1"
     showgrid="false"
     fit-margin-top="0"
     fit-margin-left="0"
     fit-margin-right="0"
     fit-margin-bottom="0"
     inkscape:window-width="1293"
     inkscape:window-height="1035"
     inkscape:window-x="37"
     inkscape:window-y="0"
     inkscape:window-maximized="0" />
  <metadata
     id="metadata7">
    <rdf:RDF>
      <cc:Work
         rdf:about="">
        <dc:format>image/svg+xml</dc:format>
        <dc:type
           rdf:resource="http://purl.org/dc/dcmitype/StillImage" />
        <dc:title />
      </cc:Work>
    </rdf:RDF>
  </metadata>
  <g
     inkscape:label="Ebene 1"
     inkscape:groupmode="layer"
     id="layer1"
     transform="translate(-180.31031,-90.78125)">
    <path
       style="fill:none;stroke:#d5d5d5;stroke-width:4;stroke-linecap:butt;stroke-linejoin:miter;stroke-miterlimit:4;stroke-opacity:1;stroke-dasharray:none"
       d="m 296.58834,134.04855 c -1.05736,0 -2.13525,-0.20736 -3.17207,0 -1.46117,0.29224 -0.45273,0.90547 -0.79302,1.58604 -0.16718,0.33436 -0.62583,0.45865 -0.79301,0.79302 -0.11822,0.23643 0.11821,0.55658 0,0.79301 -0.16718,0.33437 -0.62584,0.45865 -0.79302,0.79302 -0.23643,0.47286 0.23643,1.11317 0,1.58603 -0.16718,0.33437 -0.62583,0.45865 -0.79302,0.79302 -0.11821,0.23643 0.0836,0.54224 0,0.79302 -0.18691,0.56074 -0.6061,1.02528 -0.79301,1.58603 -0.25078,0.75232 0.19233,1.60971 0,2.37905 -0.5585,2.234 -1.02754,0.93807 -1.58604,3.17207 -0.12822,0.51289 0,1.05736 0,1.58603 -0.26434,0.52868 -0.64966,1.01261 -0.79301,1.58604 -0.49782,1.99125 0.49781,1.18082 0,3.17206 -0.14336,0.57344 -0.64966,1.01261 -0.79302,1.58604 -0.12822,0.51289 0.12822,1.07314 0,1.58603 -0.14336,0.57343 -0.6771,1.00644 -0.79302,1.58604 -0.2592,1.29603 0.32056,2.68285 0,3.96508 -0.14336,0.57343 -0.64966,1.0126 -0.79301,1.58604 -0.32056,1.28223 0.2592,2.66905 0,3.96508 -0.11593,0.5796 -0.64966,1.0126 -0.79302,1.58603 -0.49781,1.99125 0.49781,1.18082 0,3.17207 -0.14336,0.57343 -0.64966,1.0126 -0.79302,1.58604 -0.12822,0.51289 0,1.05735 0,1.58603 0,1.85037 0,3.70075 0,5.55112 0,0.52868 0.10368,1.06762 0,1.58603 -0.16393,0.81968 -0.62908,1.55937 -0.79302,2.37905 -0.10368,0.51841 0,1.05736 0,1.58604 0,1.32169 0,2.64339 0,3.96508 0,2.64339 0,5.28678 0,7.93017 0,2.11471 0,4.22942 0,6.34414 0,0.79301 0,1.58603 0,2.37905 0,0.52868 -0.12822,1.07314 0,1.58603 0.14336,0.57343 0.64966,1.0126 0.79302,1.58604 0.12822,0.51289 0,1.05735 0,1.58603 0,1.32169 -0.2592,2.66906 0,3.96508 0.11592,0.57961 0.6771,1.00644 0.79302,1.58604 0.31105,1.55523 -0.31105,3.20287 0,4.7581 0.11592,0.5796 0.67709,1.00643 0.79302,1.58603 0.31104,1.55524 -0.26075,3.19365 0,4.75811 0.13742,0.82453 0.62908,1.55937 0.79301,2.37905 0.20737,1.03682 0,2.11471 0,3.17206 0,0.26434 -0.0836,0.54225 0,0.79302 0.18692,0.56075 0.6061,1.02529 0.79302,1.58603 0.24904,0.74712 -0.25708,4.24396 0,4.75811 0.16718,0.33436 0.62583,0.45865 0.79302,0.79301 0.23643,0.47287 -0.23644,1.11317 0,1.58604 0.16718,0.33436 0.52867,0.52868 0.79301,0.79301"
       id="path2989"
       inkscape:connector-curvature="0" />
    <path
       style="fill:none;stroke:#d5d5d5;stroke-width:4;stroke-linecap:butt;stroke-linejoin:miter;stroke-miterlimit:4;stroke-opacity:1;stroke-dasharray:none"
       d="m 345.75539,132.46252 c 0.18221,2.25585 2.92826,2.40985 3.96509,3.96509 0.32787,0.4918 0.46514,1.09422 0.79301,1.58603 0.20737,0.31105 0.58565,0.48197 0.79302,0.79302 0.40603,0.60904 1.18001,2.56302 1.58603,3.17206 0.20737,0.31105 0.58566,0.48197 0.79302,0.79302 0.32787,0.49181 0.52868,1.05736 0.79302,1.58603 0.52867,1.05736 1.05735,2.11472 1.58603,3.17207 0.36899,0.73798 2.26138,4.16974 2.37905,4.7581 1.08794,5.43971 -1.39756,-0.71835 0.79302,4.75811 0.21952,0.5488 0.57349,1.03723 0.79302,1.58603 0.31045,0.77613 0.48256,1.60292 0.79301,2.37905 0.73961,1.84903 1.21031,1.71071 1.58604,3.96509 0.13037,0.78222 -0.15553,1.60143 0,2.37905 0.11592,0.5796 0.52867,1.05735 0.79301,1.58603 0.26434,0.79302 0.6556,1.55451 0.79302,2.37905 0.13037,0.78223 -0.13037,1.59682 0,2.37905 0.27485,1.64908 1.31119,3.10902 1.58603,4.7581 0.13038,0.78223 -0.13037,1.59683 0,2.37905 0.13743,0.82454 0.6556,1.55452 0.79302,2.37906 0.13037,0.78222 0,1.58603 0,2.37905 0,0.79301 0,1.58603 0,2.37905 0,2.90773 0,5.81545 0,8.72318 0,3.96509 0,7.93017 0,11.89526 0,2.11471 0,4.22942 0,6.34413 0,0.52868 0,1.05736 0,1.58604 0,0.52868 0.12822,1.07314 0,1.58603 -0.14336,0.57343 -0.6061,1.02529 -0.79302,1.58603 -0.0836,0.25078 0,0.52868 0,0.79302 0,1.05736 0.17383,2.1291 0,3.17207 -0.0972,0.58304 -0.64965,1.0126 -0.79301,1.58603 -0.12823,0.5129 0.12822,1.07314 0,1.58604 -0.14336,0.57343 -0.64966,1.0126 -0.79302,1.58603 -0.12822,0.51289 0,1.05736 0,1.58604 -0.26434,0.52867 -0.64966,1.0126 -0.79302,1.58603 -0.0966,0.38635 0.20967,2.75274 0,3.17207 -0.16718,0.33436 -0.62583,0.45865 -0.79301,0.79301 -0.11822,0.23644 0.11821,0.55659 0,0.79302 -0.16719,0.33437 -0.62584,0.45865 -0.79302,0.79302 -0.23643,0.47286 0.23643,1.11317 0,1.58603 -0.16718,0.33437 -0.62583,0.45865 -0.79302,0.79302 -0.11821,0.23643 0.11822,0.55658 0,0.79302 -0.16718,0.33436 -0.62583,0.45865 -0.79301,0.79301 -0.11822,0.23643 0.11821,0.55659 0,0.79302 -0.16719,0.33436 -0.62584,0.45865 -0.79302,0.79302 -0.11822,0.23643 0.11821,0.55658 0,0.79301 -0.33437,0.66873 -1.25167,0.91731 -1.58604,1.58604 -0.11821,0.23643 0.11822,0.55658 0,0.79301 -0.16718,0.33437 -0.62583,0.45866 -0.79301,0.79302 -0.15721,0.31443 0.16212,2.21693 0,2.37905 -0.18692,0.18692 -0.6061,-0.18691 -0.79302,0 -0.0255,0.0255 0,2.18673 0,2.37905"
       id="path2991"
       inkscape:connector-curvature="0" />
    <path
       style="fill:none;stroke:#d5d5d5;stroke-width:4;stroke-linecap:butt;stroke-linejoin:miter;stroke-miterlimit:4;stroke-opacity:1;stroke-dasharray:none"
       d="m 311.65566,130.08347 c 0,-1.05736 -1.05735,-3.17207 0,-3.17207 1.05736,0 0,4.22943 0,3.17207 0,-1.3217 0,-2.64339 0,-3.96509 0,-0.26433 -0.11821,-0.55658 0,-0.79301 0.16718,-0.33437 0.62584,-0.45865 0.79302,-0.79302 0.11821,-0.23643 -0.11822,-0.55658 0,-0.79302 0.16718,-0.33436 0.6748,-0.43837 0.79302,-0.79301 0.16718,-0.50155 -0.16719,-1.08449 0,-1.58604 0.11821,-0.35464 0.62583,-0.45865 0.79301,-0.79301 0.11822,-0.23644 0,-0.52868 0,-0.79302 0.26434,-0.26434 0.58565,-0.48197 0.79302,-0.79302 2.30902,-3.46353 -0.35147,0.26139 0.79302,-3.17207 0.11821,-0.35464 0.62583,-0.45865 0.79301,-0.79301 0.26278,-0.52555 -0.22155,-2.50742 0,-3.17207 0.37383,-1.1215 1.29932,-2.0252 1.58604,-3.17207 0.12822,-0.51289 -0.16719,-1.08448 0,-1.58603 0.11821,-0.35465 0.62583,-0.45865 0.79301,-0.79302 0.11822,-0.23643 0,-0.52868 0,-0.79302 0.26434,-0.52867 0.46515,-1.09422 0.79302,-1.58603 0.20737,-0.31105 0.62584,-0.45865 0.79302,-0.79302 0.11821,-0.23643 -0.11822,-0.55658 0,-0.79301 0.14181,-0.28363 2.84228,-2.952213 3.17207,-3.172072 0.4918,-0.327872 1.09422,-0.465144 1.58603,-0.793017 0.31105,-0.207364 0.52868,-0.528677 0.79302,-0.793016 0.52867,-0.528678 1.05735,-1.057356 1.58603,-1.586034 0.26434,-0.264339 0.45865,-0.625835 0.79302,-0.793017 0.23643,-0.118216 0.55658,0.118216 0.79301,0 0.66873,-0.334366 0.91731,-1.251669 1.58604,-1.586034 0.63441,-0.317207 1.74464,0.317207 2.37905,0 0.33436,-0.167183 0.45865,-0.625835 0.79302,-0.793017 0.0415,-0.02074 2.33756,-0.02074 2.37905,0 0.33436,0.167182 0.45865,0.625834 0.79301,0.793017 0.23644,0.118216 0.55659,-0.118216 0.79302,0 0.33437,0.167182 0.45865,0.625834 0.79302,0.793017 0.23643,0.118216 0.6061,-0.186916 0.79301,0 0.18692,0.186916 -0.18691,0.606101 0,0.793017 0.18692,0.186916 0.60611,-0.186916 0.79302,0 0.18692,0.186916 -0.11821,0.556585 0,0.793017 0.16718,0.334365 0.62584,0.458651 0.79302,0.793017 0.13823,0.276465 0,4.175962 0,4.758102 0,0.79302 0.25077,1.62673 0,2.37905 -0.11822,0.35465 -0.52868,0.52868 -0.79302,0.79302 -0.26434,0.52868 -0.64966,1.0126 -0.79302,1.58603 -0.12822,0.51289 0.23644,1.11317 0,1.58603 -0.33436,0.66874 -1.20136,0.94492 -1.58603,1.58604 -0.43007,0.71679 -0.48257,1.60292 -0.79302,2.37905 -1.09687,2.74218 -0.41365,0.55153 -2.37905,3.17207 -0.35464,0.47286 -0.43837,1.11317 -0.79301,1.58603 -0.82862,1.10482 -2.1716,2.1716 -3.17207,3.17207 -0.26434,0.26434 -0.62584,0.45865 -0.79302,0.79302 -0.11821,0.23643 0.11822,0.55658 0,0.79301 -0.39017,0.78035 -2.78189,2.39172 -3.17207,3.17207 -0.11821,0.23643 0.11822,0.55659 0,0.79302 -0.47581,0.95162 -1.90324,1.42743 -2.37905,2.37905 -0.11821,0.23643 0.11822,0.55658 0,0.79302 -0.16718,0.33436 -0.62583,0.45865 -0.79301,0.79301 -0.11822,0.23643 0.11821,0.55659 0,0.79302 -1.65018,3.30035 0.0547,-0.84776 -1.58604,0.79302 -0.18691,0.18691 0.18692,0.6061 0,0.79301 -0.18691,0.18692 -0.6061,-0.18691 -0.79302,0 -1.05735,1.05736 1.3217,0.79302 -0.79301,0.79302"
       id="path2997"
       inkscape:connector-curvature="0" />
    <path
       style="fill:none;stroke:#d5d5d5;stroke-width:4;stroke-linecap:butt;stroke-linejoin:miter;stroke-miterlimit:4;stroke-opacity:1;stroke-dasharray:none"
       d="m 287.86515,245.07093 c -2.1722,-0.92163 -4.11822,-0.79302 -6.34413,-0.79302 -0.52868,0 -1.08449,-0.16718 -1.58604,0 -0.56074,0.18692 -1.02528,0.6061 -1.58603,0.79302 -0.25077,0.0836 -0.55659,-0.11822 -0.79302,0 -0.33436,0.16718 -0.45865,0.62583 -0.79301,0.79301 -0.50462,0.25231 -3.27948,-0.22853 -3.96509,0 -0.56075,0.18692 -1.02529,0.60611 -1.58603,0.79302 -0.76298,0.25433 -2.34228,-0.20745 -3.17207,0 -0.81096,0.20274 -1.55937,0.62908 -2.37905,0.79302 -1.29603,0.2592 -2.66137,-0.21729 -3.96509,0 -0.82454,0.13742 -1.55451,0.65559 -2.37905,0.79302 -0.78222,0.13037 -1.58603,0 -2.37905,0 -0.79302,0.26433 -1.55451,0.65559 -2.37905,0.79301 -1.56445,0.26074 -3.19365,-0.26074 -4.7581,0 -0.82454,0.13743 -1.55937,0.62908 -2.37905,0.79302 -0.51841,0.10368 -1.05736,0 -1.58604,0 -0.79301,0 -1.58603,0 -2.37905,0 -0.79301,0 -1.59682,-0.13037 -2.37905,0 -6.52024,2.17341 1.67183,-0.27864 -4.7581,0.79302 -1.64908,0.27484 -3.10902,1.31118 -4.7581,1.58603 -0.78223,0.13037 -1.59682,-0.13037 -2.37905,0 -1.95374,0.32562 -3.80595,1.50646 -5.55112,2.37905 -0.52868,0.26434 -1.02529,0.6061 -1.58603,0.79302 -0.25078,0.0836 -0.55659,-0.11822 -0.79302,0 -0.66873,0.33436 -0.9173,1.25167 -1.58603,1.58603 -0.23644,0.11822 -0.60611,-0.18691 -0.79302,0 -0.37383,0.37383 0.37383,1.2122 0,1.58604 -0.18692,0.18691 -0.6061,-0.18692 -0.79302,0 -0.18691,0.18691 0.11822,0.55658 0,0.79301 -0.33436,0.66873 -1.25167,0.91731 -1.58603,1.58604 -0.14339,0.28678 0,3.41351 0,3.96508 0,2.11471 0,4.22942 0,6.34414 0,0.26434 0,0.52867 0,0.79301 0,0.26434 -0.18692,0.6061 0,0.79302 0.18691,0.18692 0.6061,-0.18692 0.79301,0 0.18692,0.18692 -0.11821,0.55659 0,0.79302 0.16719,0.33436 0.52868,0.52868 0.79302,0.79301 0.26434,0.26434 0.45865,0.62584 0.79302,0.79302 0.23643,0.11822 0.54224,-0.0836 0.79302,0 1.12149,0.37383 2.05057,1.2122 3.17206,1.58604 0.25078,0.0836 0.53657,-0.0641 0.79302,0 0.81095,0.20273 1.55937,0.62908 2.37905,0.79301 1.03682,0.20737 2.13525,-0.20736 3.17207,0 0.81968,0.16394 1.55451,0.6556 2.37905,0.79302 0.78223,0.13037 1.58603,0 2.37905,0 2.11471,0 4.22942,0 6.34414,0 2.37905,0 4.7581,0 7.13715,0 0.52868,0 1.05735,0 1.58603,0 0.52868,0 1.07314,0.12822 1.58604,0 0.57343,-0.14336 1.0126,-0.64966 1.58603,-0.79302 0.51289,-0.12822 1.07314,0.12823 1.58603,0 0.57344,-0.14336 1.01261,-0.64966 1.58604,-0.79301 0.51289,-0.12823 1.07314,0.12822 1.58603,0 0.57343,-0.14336 1.03723,-0.5735 1.58604,-0.79302 0.77612,-0.31045 1.56809,-0.59028 2.37905,-0.79302 0.51289,-0.12822 1.05735,0 1.58603,0 1.3217,0 2.64339,0 3.96509,0 0.26433,0 0.52867,0 0.79301,0 0.26434,0 0.6061,0.18692 0.79302,0 0.18692,-0.18691 -0.18692,-0.6061 0,-0.79302 0.0359,-0.0359 3.59118,0 3.96508,0 0.26434,0 0.6061,0.18692 0.79302,0 0.18692,-0.18691 -0.18692,-0.6061 0,-0.79301 0.18692,-0.18692 0.52868,0 0.79302,0 0.26434,0 0.52868,0 0.79301,0"
       id="path2999"
       inkscape:connector-curvature="0" />
    <path
       style="fill:none;stroke:#d5d5d5;stroke-width:4;stroke-linecap:butt;stroke-linejoin:miter;stroke-miterlimit:4;stroke-opacity:1;stroke-dasharray:none"
       d="m 351.30651,249.82903 c 7.40149,0 14.80298,0 22.20447,0 3.11048,0 2.10239,-0.19234 5.55112,0.79302 0.80375,0.22964 1.55451,0.65559 2.37905,0.79301 0.78223,0.13037 1.59683,-0.13037 2.37905,0 1.64908,0.27485 3.11874,1.25816 4.75811,1.58604 5.27499,1.055 -2.35037,-1.41596 3.17206,0.79301 7.98273,3.19309 -1.68373,-0.61918 3.96509,0.79302 0.57343,0.14336 1.05735,0.52868 1.58603,0.79302 0.52868,0.26434 1.05736,0.52868 1.58604,0.79301 3.71953,1.85977 -0.93458,-0.37383 3.96508,1.58604 0.5488,0.21952 1.05736,0.52868 1.58603,0.79302 0.52868,0.26433 1.09423,0.46514 1.58604,0.79301 0.31105,0.20737 0.48197,0.58565 0.79302,0.79302 1.15564,0.77043 1.65174,0.49508 2.37905,1.58603 0.48294,0.72441 0.6769,1.92449 1.58603,2.37905 0.23643,0.11822 0.6061,-0.18691 0.79302,0 0.37383,0.37384 -0.23643,1.11317 0,1.58604 0.16718,0.33436 0.62583,0.45865 0.79301,0.79301 0.12068,0.24135 0,2.02191 0,2.37906 0,0.6384 0.16592,2.67432 0,3.17206 -0.83749,2.51248 -2.58855,2.88031 -4.7581,3.96509 -0.52868,0.26434 -1.0126,0.64966 -1.58603,0.79302 -0.51289,0.12822 -1.05736,0 -1.58604,0 -0.79301,0 -1.58603,0 -2.37905,0 -2.64339,0 -5.28678,0 -7.93017,0 -9.25186,0 -18.50372,0 -27.75559,0 -3.63651,0 0.83591,0.16718 -3.96508,-0.79302 -0.51842,-0.10368 -1.11317,0.23643 -1.58604,0 -3.15989,-1.57995 -0.003,-1.58691 -3.17207,-2.37905 -3.61003,0 -0.0453,0.37383 -2.37905,-0.79302 -1.05735,-0.52868 -0.79301,0.79302 -0.79301,-0.79302"
       id="path3005"
       inkscape:connector-curvature="0" />
    <path
       style="fill:none;stroke:#d5d5d5;stroke-width:4;stroke-linecap:butt;stroke-linejoin:miter;stroke-miterlimit:4;stroke-opacity:1;stroke-dasharray:none"
       d="m 270.41878,272.82652 c -7.98714,-1.74053 -1.28915,2.87519 -2.37905,3.96509 -0.18692,0.18691 -0.55659,-0.11822 -0.79302,0 -0.32811,0.16405 -2.15496,2.04292 -2.37905,2.37905 -0.32787,0.4918 -0.46514,1.09422 -0.79302,1.58603 -0.45619,0.68429 -1.75963,1.75964 -2.37905,2.37905 -0.41749,0.4175 -2.16728,1.95551 -2.37905,2.37905 -0.11821,0.23643 0.11822,0.55659 0,0.79302 -0.33436,0.66873 -1.1713,0.96394 -1.58603,1.58603 -1.74715,0.39936 -0.41919,1.63139 -0.79302,2.37905 -0.16718,0.33437 -0.62583,0.45866 -0.79302,0.79302 -0.11821,0.23643 0,0.52868 0,0.79302 -0.26433,0.26434 -0.62583,0.45865 -0.79301,0.79301 -0.24922,0.49843 0.24921,2.67364 0,3.17207 -0.16718,0.33437 -0.62584,0.45865 -0.79302,0.79302 -0.009,0.017 -0.0821,5.30488 0,5.55112 0.23643,0.70929 1.25167,0.9173 1.58603,1.58603 0.11822,0.23643 -0.11821,0.55659 0,0.79302 0.16719,0.33436 0.52868,0.52868 0.79302,0.79302 0.26434,0.26433 0.52868,0.52867 0.79302,0.79301 0.52868,0.52868 0.96394,1.17131 1.58603,1.58604 0.49181,0.32787 1.09423,0.46514 1.58604,0.79301 0.31104,0.20737 0.48197,0.58566 0.79301,0.79302 0.49181,0.32787 1.11317,0.43837 1.58604,0.79302 0.59813,0.4486 0.9879,1.13743 1.58603,1.58603 0.47287,0.35465 1.05736,0.52868 1.58604,0.79302 3.71953,1.85976 -0.93458,-0.37383 3.96508,1.58603 1.09761,0.43905 2.07446,1.14699 3.17207,1.58604 0.77612,0.31045 1.60292,0.48256 2.37905,0.79301 0.52868,0.26434 1.05735,0.52868 1.58603,0.79302 0.26434,0.26434 0.45865,0.62583 0.79302,0.79302 1.27322,0.63661 2.69186,0.94942 3.96508,1.58603 0.33437,0.16718 0.43837,0.6748 0.79302,0.79302 0.50155,0.16718 1.08449,-0.16719 1.58604,0 0.35464,0.11821 0.43836,0.6748 0.79301,0.79301 0.50155,0.16719 1.08449,-0.16718 1.58604,0 0.35464,0.11822 0.48197,0.58566 0.79301,0.79302 4.00617,2.67078 0.0184,0.006 2.37905,0.79302 0.56075,0.18691 1.003,0.69584 1.58604,0.79302 6.02762,0 0.96046,-0.47287 4.7581,0.79301 0.6856,0.22854 3.46047,-0.2523 3.96508,0 0.33437,0.16718 0.45866,0.62584 0.79302,0.79302 0.63441,0.31721 1.74464,-0.31721 2.37905,0 0.33437,0.16718 0.45865,0.62583 0.79302,0.79302 0.23643,0.11821 0.52868,0 0.79302,0 0.52867,0 1.05735,0 1.58603,0 2.11471,0 4.22942,0 6.34414,0 2.64339,0 5.28678,0 7.93016,0 0.18845,0 2.99433,0.0889 3.17207,0 0.33437,-0.16719 0.43837,-0.6748 0.79302,-0.79302 0.36272,-0.12091 2.81919,0.17644 3.17207,0 0.33436,-0.16718 0.43837,-0.6748 0.79301,-0.79302 0.73295,-0.24431 3.22537,0.24658 3.96509,0 2.7337,-0.91123 0.58744,-0.79301 2.37905,-0.79301 0.18844,0 2.99433,0.0889 3.17207,0 0.33436,-0.16719 0.45865,-0.62584 0.79301,-0.79302 0.47287,-0.23643 1.11317,0.23643 1.58604,0 0.33436,-0.16718 0.43837,-0.6748 0.79302,-0.79302 3.61003,0 0.0454,0.37383 2.37905,-0.79302 0.23643,-0.11821 0.52867,0 0.79301,0 0.52868,0 1.08449,0.16719 1.58604,0 0.35465,-0.11821 0.45865,-0.62583 0.79301,-0.79301 0.23644,-0.11822 0.55659,0.11821 0.79302,0 0.33437,-0.16719 0.45865,-0.62584 0.79302,-0.79302 0.23643,-0.11822 0.55658,0.11822 0.79302,0 0.33436,-0.16718 0.45865,-0.62583 0.79301,-0.79302 0.23643,-0.11821 0.55659,0.11822 0.79302,0 0.33436,-0.16718 0.52868,-0.52867 0.79302,-0.79301 0.61941,-0.61942 1.69475,-1.92286 2.37905,-2.37905 0.4918,-0.32788 1.09422,-0.46515 1.58603,-0.79302 0.62209,-0.41473 1.05736,-1.05736 1.58603,-1.58604 0.79302,-0.79301 1.58604,-1.58603 2.37906,-2.37905 0.26433,-0.26433 0.52867,-0.52867 0.79301,-0.79301 0.26434,-0.26434 0.62584,-0.45865 0.79302,-0.79302 0.11822,-0.23643 -0.11822,-0.55658 0,-0.79302 1.65017,-3.30034 -0.0548,0.84777 1.58603,-0.79301 0.18692,-0.18692 -0.18691,-0.6061 0,-0.79302 0.18692,-0.18692 0.6061,0.18692 0.79302,0 0.18692,-0.18692 -0.11822,-0.55659 0,-0.79302 0.47581,-0.95162 1.90324,-1.42743 2.37905,-2.37905 0.23643,-0.47286 -0.23643,-1.11317 0,-1.58603 0.16718,-0.33437 0.62584,-0.45865 0.79302,-0.79302 0.23643,-0.47286 -0.23643,-1.11317 0,-1.58603 0.16718,-0.33437 0.62583,-0.45865 0.79301,-0.79302 0.11822,-0.23643 0,-0.52868 0,-0.79302 0,-0.26434 0,-0.52868 0,-0.79301 0,-1.3217 0,-2.64339 0,-3.96509 0,-0.29122 0.0319,-3.14015 0,-3.17207 -0.18691,-0.18691 -0.6061,0.18692 -0.79301,0 -0.18692,-0.18691 0.11821,-0.55658 0,-0.79301 -0.16718,-0.33437 -0.62584,-0.45866 -0.79302,-0.79302 -0.11821,-0.23643 0.11822,-0.55659 0,-0.79302 -0.16718,-0.33436 -0.62583,-0.45865 -0.79302,-0.79301 -0.11821,-0.23644 0.11822,-0.55659 0,-0.79302 -0.33436,-0.66873 -1.1713,-0.96394 -1.58603,-1.58604 -1.74715,-0.39935 -0.41919,-1.63138 -0.79302,-2.37905 -0.47581,-0.95162 -1.90324,-1.42743 -2.37905,-2.37905 -0.11821,-0.23643 0.11822,-0.55658 0,-0.79301 -0.16718,-0.33437 -0.58565,-0.48197 -0.79301,-0.79302 -0.32788,-0.49181 -0.46515,-1.09423 -0.79302,-1.58603 -0.7273,-1.09096 -1.2234,-0.81561 -2.37905,-1.58604 -0.6221,-0.41473 -0.96394,-1.1713 -1.58604,-1.58603 -0.52867,-0.26434 -1.05735,-0.52868 -1.58603,-0.79302 -0.26434,0 -0.55659,0.11822 -0.79302,0 -0.33436,-0.16718 -0.45865,-0.62583 -0.79301,-0.79302 -0.23644,-0.11821 -0.52868,0 -0.79302,0 -0.26434,-0.26434 -0.45865,-0.62583 -0.79302,-0.79301 -0.17774,-0.0889 -2.98362,0 -3.17207,0"
       id="path3021"
       inkscape:connector-curvature="0" />
    <path
       style="fill:none;stroke:#d5d5d5;stroke-width:4;stroke-linecap:butt;stroke-linejoin:miter;stroke-miterlimit:4;stroke-opacity:1;stroke-dasharray:none"
       d="m 307.69058,302.96116 c 0,6.02763 -0.47287,0.96046 0.79301,4.75811 0.7869,2.36067 -1.87776,-1.62712 0.79302,2.37905 0.20737,0.31104 0.62583,0.45865 0.79302,0.79301 0.11821,0.23644 -0.18692,0.60611 0,0.79302 0.18691,0.18692 0.52868,0 0.79301,0 0.26434,0 0.52868,0 0.79302,0 0.52868,0 1.05736,0 1.58604,0 0.26433,0 0.57307,0.14663 0.79301,0 4.59799,-3.06533 0.58723,-0.38145 1.58604,-2.37905 0.16718,-0.33437 0.62583,-0.45865 0.79301,-0.79302 0.12056,-0.2411 0,-2.62447 0,-3.17206 0,-0.26434 0.18692,-0.60611 0,-0.79302 -0.18691,-0.18692 -0.52867,0 -0.79301,0 -0.26434,0 -0.55659,-0.11822 -0.79302,0 -1.48781,0.7439 -0.33911,1.01731 -0.79302,2.37905 -0.11821,0.35465 -0.62583,0.45865 -0.79301,0.79302 -0.11822,0.23643 0,0.52867 0,0.79301 0,0.52868 0,1.05736 0,1.58604 0,0.41468 -0.10426,2.96355 0,3.17206 0.16718,0.33437 0.45865,0.62584 0.79301,0.79302 0.0415,0.0208 2.33757,0.0208 2.37905,0 0.80732,-0.40366 1.26408,-1.73513 1.58604,-2.37905 0.26434,-0.52868 0.64966,-1.0126 0.79301,-1.58603 0.12823,-0.5129 0,-1.05736 0,-1.58604 0,-0.52867 0,-1.05735 0,-1.58603 0,-0.20713 0.1329,-4.35941 0,-4.7581 -0.18691,-0.56075 -0.37506,-1.16808 -0.79301,-1.58604 -0.41796,-0.41795 -1.02529,-0.6061 -1.58604,-0.79301 -0.50154,-0.16719 -1.05735,0 -1.58603,0 -0.52868,0 -1.08449,-0.16719 -1.58603,0 -0.35465,0.11821 -0.58566,0.48197 -0.79302,0.79301 -0.32787,0.49181 -0.6061,1.02529 -0.79302,1.58604 -0.0836,0.25077 0.25921,0.74117 0,0.79301 -1.29603,0.25921 -3.70588,-1.29602 -3.96508,0 -0.33195,1.65973 2.23318,2.55676 3.17206,3.96509 0.18182,0.27272 -0.17384,2.2052 0,2.37905 0.18692,0.18692 0.52868,0 0.79302,0 0.26434,0 0.52868,0 0.79302,0 0.52868,0 1.05735,0 1.58603,0 0.26434,0 0.55659,0.11822 0.79302,0 0.33436,-0.16718 0.52868,-0.52868 0.79302,-0.79302 0.26434,-0.26434 0.6748,-0.43837 0.79301,-0.79301 0.16719,-0.50155 0,-1.05736 0,-1.58604 0,-0.52868 0,-1.05735 0,-1.58603 0,-0.5476 0.12056,-2.93096 0,-3.17207 -0.8767,-1.7534 -0.49218,-0.24609 -1.58603,-0.79302 -0.33437,-0.16718 -0.45865,-0.62583 -0.79302,-0.79301 -0.23643,-0.11822 -0.52868,0 -0.79301,0 -0.26434,0 -0.55659,-0.11822 -0.79302,0 -0.33437,0.16718 -0.48197,0.58565 -0.79302,0.79301 -1.28248,0.85499 -3.59125,0.88373 -3.96508,2.37905 -0.37384,1.49533 1.68974,2.58647 2.37905,3.96509 0.11821,0.23643 -0.11822,0.55658 0,0.79302 0.10527,0.21055 2.16849,2.27377 2.37905,2.37905 0.23643,0.11821 0.52868,0 0.79302,0 0.26433,0 0.52867,0 0.79301,0 0.85975,0 1.9901,0.37383 2.37905,-0.79302 0.12101,-0.36301 0,-3.52246 0,-3.96508 0,-0.52868 0,-1.05736 0,-1.58604 0,-0.52868 0.29326,-1.14615 0,-1.58603 -0.32787,-0.49181 -1.02528,-0.6061 -1.58603,-0.79302 -0.27164,-0.0906 -2.90043,-0.0906 -3.17207,0 -1.35046,0.45015 -3.46526,0.25316 -3.96508,1.58603 -0.58702,1.56538 1.12674,3.15061 1.58603,4.75811 0.14524,0.50833 -0.37383,1.2122 0,1.58603 0.18692,0.18692 0.6061,-0.18692 0.79302,0 0.18691,0.18692 -0.18692,0.6061 0,0.79302 0.18691,0.18691 0.52868,0 0.79301,0 0.52868,0 1.05736,0 1.58604,0 0.26434,0 0.55658,0.11821 0.79302,0 0.72586,-0.36294 1.39285,-1.79952 1.58603,-2.37905 0.0836,-0.25078 -0.11822,-0.55659 0,-0.79302 0.16718,-0.33437 0.6748,-0.43837 0.79302,-0.79302 0.16718,-0.50155 0,-1.05735 0,-1.58603 0,-0.26434 0.11821,-0.55659 0,-0.79302 -0.16719,-0.33436 -0.52868,-0.52868 -0.79302,-0.79302 -0.26434,-0.26433 -0.45865,-0.62583 -0.79302,-0.79301 -0.23643,-0.11822 -0.52868,0 -0.79301,0 -0.52868,0 -1.06267,-0.0748 -1.58604,0 -1.33432,0.19062 -3.1022,-0.24245 -3.96508,0.79301 -0.84613,1.01536 -0.25921,2.66906 0,3.96509 0.0518,0.25921 0.55658,-0.11822 0.79301,0 0.33437,0.16718 0.43837,0.6748 0.79302,0.79302 0.0521,0.0174 3.91301,0.0174 3.96509,0 0.35464,-0.11822 0.48197,-0.58566 0.79301,-0.79302 0.49181,-0.32787 1.16808,-0.37506 1.58604,-0.79302 1.24338,-1.24338 0.79301,-3.98714 0.79301,-5.55112 0,-0.26434 0.0836,-0.54224 0,-0.79301 -0.12144,-0.36434 -0.90553,-2.15222 -1.58603,-2.37905 -0.0455,-0.0152 -5.45316,-0.0653 -5.55112,0 -0.49181,0.32787 -0.63063,1.01769 -0.79302,1.58603 -1.0648,3.72681 -1.3014,4.43947 0.79302,7.93017 0.0466,0.0777 2.24719,0.0659 2.37905,0 0.13605,-0.068 2.34621,-2.28054 2.37905,-2.37905 0.25078,-0.75232 0,-1.58604 0,-2.37905 0,-1.07847 0.42707,-2.56203 -0.79301,-3.17207 -0.23644,-0.11822 -0.52868,0 -0.79302,0 -2.00975,0 -5.21944,-0.18692 -4.7581,3.96508 0.2105,1.89452 3.10307,2.22634 4.7581,3.17207 0.22951,0.13115 0.52868,0 0.79302,0 0.26433,0 0.6061,0.18692 0.79301,0 0.18692,-0.18691 0,-0.52868 0,-0.79301 0,-0.26434 0,-0.52868 0,-0.79302 0,-1.08812 0.41632,-2.5674 -0.79301,-3.17207 -0.23644,-0.11822 -0.52868,0 -0.79302,0 -0.26434,0 -0.54224,-0.0836 -0.79302,0 -1.35046,0.45015 -3.96508,0.16253 -3.96508,1.58603 0,1.54135 2.58646,1.68974 3.96508,2.37906 0.24134,0.12067 2.02191,0 2.37905,0"
       id="path3023"
       inkscape:connector-curvature="0" />
    <path
       style="fill:none;stroke:#d5d5d5;stroke-width:4;stroke-linecap:butt;stroke-linejoin:miter;stroke-miterlimit:4;stroke-opacity:1;stroke-dasharray:none"
       d="m 279.14197,297.41005 c -0.29073,3.69244 -0.68055,3.17206 1.58603,3.17206"
       id="path3025"
       inkscape:connector-curvature="0" />
    <path
       style="fill:none;stroke:#d5d5d5;stroke-width:4;stroke-linecap:butt;stroke-linejoin:miter;stroke-miterlimit:4;stroke-opacity:1;stroke-dasharray:none"
       d="m 288.65817,306.13323 1.58603,0.79302"
       id="path3029"
       inkscape:connector-curvature="0" />
    <path
       style="fill:none;stroke:#d5d5d5;stroke-width:4;stroke-linecap:butt;stroke-linejoin:miter;stroke-miterlimit:4;stroke-opacity:1;stroke-dasharray:none"
       d="m 284.69309,291.85893 c 1.05735,0.79301 2.11471,1.58603 0,0 z"
       id="path3031"
       inkscape:connector-curvature="0" />
    <path
       style="fill:none;stroke:#d5d5d5;stroke-width:4;stroke-linecap:butt;stroke-linejoin:miter;stroke-miterlimit:4;stroke-opacity:1;stroke-dasharray:none"
       d="m 294.20929,296.61703 c -0.26434,1.05735 0.26434,3.43641 -0.79302,3.17207 -1.05735,-0.26434 0.52868,-2.11472 0.79302,-3.17207 z"
       id="path3033"
       inkscape:connector-curvature="0" />
    <path
       style="fill:none;stroke:#d5d5d5;stroke-width:4;stroke-linecap:butt;stroke-linejoin:miter;stroke-miterlimit:4;stroke-opacity:1;stroke-dasharray:none"
       d="m 340.20427,307.71927 c -0.26434,1.05735 0.26434,3.4364 -0.79302,3.17206 -1.05735,-0.26433 0.79302,-4.26196 0.79302,-3.17206 0,1.34787 -0.79302,2.61721 -0.79302,3.96508 0,0.26434 0.74118,0.25921 0.79302,0 0.25921,-1.29603 0,-2.64339 0,-3.96508 z"
       id="path3035"
       inkscape:connector-curvature="0" />
    <path
       style="fill:none;stroke:#d5d5d5;stroke-width:4;stroke-linecap:butt;stroke-linejoin:miter;stroke-miterlimit:4;stroke-opacity:1;stroke-dasharray:none"
       d="m 352.89254,305.34022 -1.58603,1.58603"
       id="path3037"
       inkscape:connector-curvature="0" />
    <path
       style="fill:none;stroke:#d5d5d5;stroke-width:4;stroke-linecap:butt;stroke-linejoin:miter;stroke-miterlimit:4;stroke-opacity:1;stroke-dasharray:none"
       d="m 348.13444,293.44496 c -1.05735,0 -2.22634,-0.47286 -3.17207,0 -0.47286,0.23643 0,1.05736 0,1.58604 0,0.26433 0,0.52867 0,0.79301 0,0.26434 0,0.52868 0,0.79302 0,0.26434 -0.26434,0.79302 0,0.79302 0.37384,0 0.55949,-0.50111 0.79302,-0.79302 0.82566,-1.03207 2.79701,-1.9182 2.37905,-3.17207 -2.38875,-7.16627 -3.42425,1.64908 -3.17207,1.58604 1.14687,-0.28672 2.11472,-1.05736 3.17207,-1.58604 z"
       id="path3039"
       inkscape:connector-curvature="0" />
    <path
       style="fill:none;stroke:#d5d5d5;stroke-width:4;stroke-linecap:butt;stroke-linejoin:miter;stroke-miterlimit:4;stroke-opacity:1;stroke-dasharray:none"
       d="m 331.48109,297.41005 c 2.16112,3.42701 1.44637,3.17206 3.96508,3.17206 0.26434,0 0.52868,0 0.79302,0 0.26434,0 0.55658,0.11822 0.79301,0 0.33437,-0.16718 0.62584,-0.45865 0.79302,-0.79301 0.0813,-0.16267 0.11184,-2.26722 0,-2.37905 -0.18692,-0.18692 -0.52868,0 -0.79302,0 -0.26434,0 -0.55658,-0.11822 -0.79301,0 -0.33437,0.16718 -0.62584,0.45865 -0.79302,0.79301 -0.11822,0.23643 0.26434,0.79302 0,0.79302 -0.52868,0 0.51841,-1.48235 0,-1.58603 -1.29603,-0.25921 -3.96508,-1.3217 -3.96508,0 0,0.84485 3.44566,0.79301 4.7581,0.79301"
       id="path3041"
       inkscape:connector-curvature="0" />
    <path
       style="fill:none;stroke:#d5d5d5;stroke-width:4;stroke-linecap:butt;stroke-linejoin:miter;stroke-miterlimit:4;stroke-opacity:1;stroke-dasharray:none"
       d="m 295.00231,275.20557 c 0,-1.05735 -1.05736,-3.17207 0,-3.17207 1.05735,0 0,4.22943 0,3.17207 0,-1.32169 -0.25921,-2.66905 0,-3.96508 0.0518,-0.25921 0.52867,0 0.79301,0 0.26434,0 0.84486,-0.25921 0.79302,0 -0.27917,1.39586 -2.85926,3.32847 -1.58603,3.96508 1.58603,0.79302 2.9957,-2.18323 4.7581,-2.37905 0.94726,-0.10525 1.58603,1.05736 2.37905,1.58603 0.79301,0.52868 1.64687,0.97589 2.37905,1.58604 1.43593,1.1966 2.46976,2.84359 3.96508,3.96508 0.94573,0.7093 2.18845,0.93029 3.17207,1.58604 1.28416,0.8561 0.55655,1.58603 2.37905,1.58603"
       id="path3043"
       inkscape:connector-curvature="0" />
    <path
       style="fill:none;stroke:#d5d5d5;stroke-width:4;stroke-linecap:butt;stroke-linejoin:miter;stroke-miterlimit:4;stroke-opacity:1;stroke-dasharray:none"
       d="m 298.96739,280.75669 c 1.05736,-1.32169 1.97522,-2.76824 3.17207,-3.96508 0.41795,-0.41796 1.11317,-0.43837 1.58603,-0.79302 0.59813,-0.4486 1.05736,-1.05736 1.58604,-1.58604 1.85037,-1.85037 3.70074,-3.70074 5.55111,-5.55111 0.52868,-0.52868 1.05736,-1.05736 1.58604,-1.58604 0.26434,-0.26434 0.62583,-0.45865 0.79302,-0.79302 1.16684,-2.33369 -1.83709,1.04408 0.79301,-1.58603"
       id="path3045"
       inkscape:connector-curvature="0" />
    <path
       style="fill:none;stroke:#d5d5d5;stroke-width:4;stroke-linecap:butt;stroke-linejoin:miter;stroke-miterlimit:4;stroke-opacity:1;stroke-dasharray:none"
       d="m 325.13695,274.41255 c 5.4674,1.82247 3.57594,0.40388 6.34414,3.17207 0.52867,0.52868 1.0022,1.11897 1.58603,1.58604 0.74424,0.59539 1.63481,0.99064 2.37905,1.58603 0.58383,0.46706 1.05736,1.05736 1.58603,1.58603 0.26434,0.26434 0.45866,0.62584 0.79302,0.79302 0.23643,0.11822 0.6061,-0.18691 0.79302,0 1.05735,1.05736 -1.3217,0.79302 0.79301,0.79302"
       id="path3047"
       inkscape:connector-curvature="0" />
    <path
       style="fill:none;stroke:#d5d5d5;stroke-width:4;stroke-linecap:butt;stroke-linejoin:miter;stroke-miterlimit:4;stroke-opacity:1;stroke-dasharray:none"
       d="m 325.13695,282.34272 c 1.1567,-1.54227 2.3897,-3.49779 3.96508,-4.7581 0.74424,-0.59539 1.63482,-0.99064 2.37906,-1.58603 0.58382,-0.46706 1.0022,-1.11897 1.58603,-1.58604 1.48847,-1.19077 3.26963,-1.98128 4.7581,-3.17206 1.76011,-0.33408 1.44447,-2.23749 2.37905,-3.17207 0.41796,-0.41796 1.16808,-0.37506 1.58604,-0.79302 1.05735,-1.05735 -1.3217,-0.79302 0.79301,-0.79302"
       id="path3049"
       inkscape:connector-curvature="0" />
    <path
       style="fill:none;stroke:#d5d5d5;stroke-width:4;stroke-linecap:butt;stroke-linejoin:miter;stroke-miterlimit:4;stroke-opacity:1;stroke-dasharray:none"
       d="m 345.75539,320.40754 c 0,1.05735 1.05736,3.17207 0,3.17207 -1.05736,0 -0.94573,-3.64494 0,-3.17207 3.59785,1.79892 0.91178,3.52837 1.58603,5.55112 0.11822,0.35464 0.58566,0.48197 0.79302,0.79301 2.11471,3.17207 -0.79302,0.26434 2.37905,2.37905 1.09096,0.72731 0.8156,1.22341 1.58604,2.37905 0.7273,1.09096 1.2234,0.81561 2.37905,1.58604 1.1669,0.77793 2.00516,2.39413 3.17206,3.17207 0.52868,0.26434 1.05736,0.52867 1.58604,0.79301 0.26434,0 0.55658,-0.11821 0.79302,0 0.33436,0.16719 0.43836,0.6748 0.79301,0.79302 0.50155,0.16718 1.08449,-0.16718 1.58604,0 0.35464,0.11822 0.48197,0.58565 0.79301,0.79302 0.49181,0.32787 1.09423,0.46514 1.58604,0.79301 0.62209,0.41473 0.96394,1.17131 1.58603,1.58604 0.49181,0.32787 1.16808,0.37506 1.58603,0.79302 0.18692,0.18691 -0.18691,0.6061 0,0.79301 0.18692,0.18692 0.52868,0 0.79302,0 0.26434,0 0.52868,0 0.79302,0 0.56209,0 4.55307,0.10252 4.7581,0 0.33437,-0.16718 0.52868,-0.52868 0.79302,-0.79301 0.26434,-0.26434 0.62583,-0.45866 0.79301,-0.79302 0.11822,-0.23643 -0.18691,-0.6061 0,-0.79302 0.18692,-0.18691 0.60611,0.18692 0.79302,0 0.37383,-0.37383 -0.23643,-1.11317 0,-1.58603 0.16718,-0.33437 0.62584,-0.45865 0.79302,-0.79302 0.16934,-0.33868 0,-3.65159 0,-3.96508 0,-0.26434 0.11821,-0.55659 0,-0.79302 -0.16718,-0.33437 -0.62584,-0.45865 -0.79302,-0.79302 -0.11821,-0.23643 0.11822,-0.55658 0,-0.79302 -0.16718,-0.33436 -0.62583,-0.45865 -0.79302,-0.79301 -0.11821,-0.23643 0.11822,-0.55659 0,-0.79302 -0.47581,-0.95162 -1.90324,-1.42743 -2.37905,-2.37905 -0.11821,-0.23643 0.11822,-0.55658 0,-0.79302 -0.16718,-0.33436 -0.58565,-0.48197 -0.79301,-0.79301 -0.32788,-0.49181 -0.46515,-1.09423 -0.79302,-1.58604 -0.41473,-0.62209 -1.17131,-0.96394 -1.58603,-1.58603 -0.26434,-0.52868 -0.52868,-1.05736 -0.79302,-1.58604 0,-0.26433 0.11821,-0.55658 0,-0.79301 -0.33437,-0.66873 -1.25167,-0.91731 -1.58604,-1.58604 -0.11821,-0.23643 0.11822,-0.55658 0,-0.79301 -0.16718,-0.33437 -0.52867,-0.52868 -0.79301,-0.79302 -0.26434,-0.26434 -0.43837,-0.6748 -0.79302,-0.79302 -0.50155,-0.16718 -1.08448,0.16719 -1.58603,0 -0.53699,-0.17899 -1.77328,-2.07616 -2.37905,-2.37905 -0.23644,-0.11821 -0.52868,0 -0.79302,0 -0.26434,0 -0.52868,0 -0.79302,0"
       id="path3053"
       inkscape:connector-curvature="0" />
    <path
       style="fill:none;stroke:#d5d5d5;stroke-width:4;stroke-linecap:butt;stroke-linejoin:miter;stroke-miterlimit:4;stroke-opacity:1;stroke-dasharray:none"
       d="m 356.85763,323.57961 c 0.52868,1.05735 0.84754,2.24895 1.58603,3.17206 0.36925,0.46156 1.09423,0.46515 1.58604,0.79302 0.93314,0.62209 1.48185,1.70615 2.37905,2.37905 0.94572,0.7093 2.33615,0.75012 3.17206,1.58603 0.41796,0.41796 0.46515,1.09423 0.79302,1.58604 0.4562,0.68429 1.75964,1.75963 2.37905,2.37905"
       id="path3055"
       inkscape:connector-curvature="0" />
    <path
       style="fill:none;stroke:#d5d5d5;stroke-width:4;stroke-linecap:butt;stroke-linejoin:miter;stroke-miterlimit:4;stroke-opacity:1;stroke-dasharray:none"
       d="m 365.58081,222.86645 c 2.00799,-0.0751 3.65289,1.26966 5.55112,1.58604 0.78223,0.13037 1.59683,-0.13037 2.37905,0 1.64908,0.27484 3.10903,1.31118 4.75811,1.58603 0.78222,0.13037 1.59682,-0.13037 2.37905,0 0.82454,0.13742 1.55451,0.65559 2.37905,0.79302 0.78222,0.13037 1.59682,-0.13037 2.37905,0 0.82454,0.13742 1.58603,0.52868 2.37905,0.79301 1.58603,0.52868 3.20585,0.96514 4.7581,1.58604 0.5488,0.21952 1.00643,0.67709 1.58603,0.79302 0.77762,0.15552 1.60144,-0.15553 2.37906,0 0.5796,0.11592 1.05735,0.52867 1.58603,0.79301 1.05735,0.52868 2.07446,1.14699 3.17207,1.58604 5.74983,2.29993 -0.27153,-0.0543 3.96508,0.79301 1.63936,0.32788 3.10902,1.31119 4.7581,1.58604 0.78223,0.13037 1.58604,0 2.37905,0 0.79302,0.26434 1.55937,0.62908 2.37905,0.79301 1.25545,0.25109 3.57096,-0.29678 4.75811,0 0.57343,0.14336 1.0126,0.64966 1.58603,0.79302 0.51289,0.12822 1.05736,0 1.58603,0 0.82468,0 4.13431,-0.15595 4.75811,0 0.57343,0.14336 1.0126,0.64966 1.58603,0.79302 0.77803,0.1945 4.30009,-0.22901 4.7581,0 0.33437,0.16718 0.45865,0.62583 0.79302,0.79301 0.63441,0.31721 1.74464,-0.3172 2.37905,0 0.33436,0.16719 0.45865,0.62584 0.79302,0.79302 0.47286,0.23643 1.11317,-0.23643 1.58603,0 0.33437,0.16718 0.45865,0.62584 0.79302,0.79302 0.2927,0.14635 4.06732,0 4.7581,0 2.11471,0 4.22942,0 6.34413,0 0.35715,0 2.13771,0.12067 2.37906,0 0.33436,-0.16718 0.45865,-0.62584 0.79301,-0.79302 0.63442,-0.31721 1.74464,0.31721 2.37905,0 0.33437,-0.16718 0.45865,-0.62583 0.79302,-0.79302 0.63441,-0.3172 1.74464,0.31721 2.37905,0 0.66873,-0.33436 0.9173,-1.25166 1.58604,-1.58603 0.23643,-0.11822 0.55658,0.11822 0.79301,0 1.75341,-0.8767 0.24609,-0.49218 0.79302,-1.58603 0.16718,-0.33437 0.62583,-0.45865 0.79302,-0.79302 0.10425,-0.20852 0,-2.75738 0,-3.17207 0,-0.33359 0.11795,-4.5222 0,-4.7581 -0.48511,-0.97022 -1.60635,-1.0065 -2.37905,-1.58603 -0.59814,-0.4486 -0.98791,-1.13744 -1.58604,-1.58604 -1.48989,-1.11742 -4.56277,-1.78526 -6.34413,-2.37905 -0.79302,-0.26434 -1.58604,-0.52868 -2.37906,-0.79302 -0.52867,0 -1.07314,0.12823 -1.58603,0 -0.57343,-0.14335 -1.02529,-0.6061 -1.58603,-0.79301 -2.36068,-0.78689 1.62711,1.87776 -2.37905,-0.79302 -0.31105,-0.20736 -0.48197,-0.58565 -0.79302,-0.79302 -1.32056,-0.88037 -3.5331,-1.46029 -4.7581,-2.37905 -0.59813,-0.44859 -0.98791,-1.13743 -1.58604,-1.58603 -0.38955,-0.29217 -4.29429,-2.24653 -4.7581,-2.37905 -1.29601,-0.37029 -2.66907,-0.42273 -3.96508,-0.79302 -0.56834,-0.16238 -1.01261,-0.64966 -1.58604,-0.79302 -0.51289,-0.12822 -1.05735,0 -1.58603,0 -1.85037,0 -3.70075,0 -5.55112,0 -0.52868,0 -1.08449,0.16719 -1.58603,0 -0.35465,-0.11821 -0.48197,-0.58565 -0.79302,-0.79301 -0.49181,-0.32787 -1.05736,-0.52868 -1.58603,-0.79302 -1.56203,-0.78101 -3.13725,-1.73071 -4.75811,-2.37905 -0.77612,-0.31045 -1.58603,-0.52868 -2.37905,-0.79302 -0.79301,-0.26434 -1.55451,-0.65559 -2.37905,-0.79301 -0.78222,-0.13038 -1.59682,0.13037 -2.37905,0 -0.82454,-0.13743 -1.55451,-0.6556 -2.37905,-0.79302 -1.30371,-0.21729 -2.66906,0.2592 -3.96508,0 -0.81968,-0.16394 -1.55937,-0.62908 -2.37905,-0.79302 -0.51842,-0.10368 -1.07315,0.12823 -1.58604,0 -0.57343,-0.14336 -1.00643,-0.67709 -1.58603,-0.79301 -0.77762,-0.15553 -1.60144,0.15552 -2.37905,0 -0.57961,-0.11593 -1.01261,-0.64966 -1.58604,-0.79302 -0.76934,-0.19234 -1.62673,0.25077 -2.37905,0 -0.56075,-0.18692 -1.02528,-0.6061 -1.58603,-0.79302 -0.44742,-0.14914 -1.85796,0 -2.37905,0 -1.85038,0 -3.70075,0 -5.55112,0 -0.52868,0 -1.05736,0 -1.58604,0 -0.26433,0 -0.54224,0.0836 -0.79301,0 -1.18356,-0.39452 -1.98851,-1.19151 -3.17207,-1.58603 -0.44742,-0.14914 -1.85795,0 -2.37905,0"
       id="path3063"
       inkscape:connector-curvature="0" />
    <path
       style="fill:none;stroke:#d5d5d5;stroke-width:4;stroke-linecap:butt;stroke-linejoin:miter;stroke-miterlimit:4;stroke-opacity:1;stroke-dasharray:none"
       d="m 448.05458,228.41757 c -0.40526,3.07255 3.01199,-1.7461 3.96508,-0.79302 0.18692,0.18692 -0.18691,0.60611 0,0.79302 0.18692,0.18692 0.55659,-0.11821 0.79302,0 0.33436,0.16718 0.52868,0.52868 0.79302,0.79302 0.26433,0.26434 0.62583,0.45865 0.79301,0.79302 0.11822,0.23643 -0.0836,0.54224 0,0.79301 1.91472,5.74415 -0.22863,-1.25027 1.58604,2.37905 0.11821,0.23643 -0.18692,0.6061 0,0.79302 0.18691,0.18692 0.6061,-0.18692 0.79301,0 0.18692,0.18692 -0.18691,0.6061 0,0.79302 0.18692,0.18691 0.6061,-0.18692 0.79302,0 0.18692,0.18691 -0.18692,0.6061 0,0.79301 0.18692,0.18692 0.6061,-0.18691 0.79302,0 0.18691,0.18692 -0.18692,0.6061 0,0.79302 1.05735,1.05736 0.79301,-1.32169 0.79301,0.79302"
       id="path3067"
       inkscape:connector-curvature="0" />
    <path
       style="fill:none;stroke:#d5d5d5;stroke-width:4;stroke-linecap:butt;stroke-linejoin:miter;stroke-miterlimit:4;stroke-opacity:1;stroke-dasharray:none"
       d="m 329.10203,130.87649 c 1.05736,-0.79302 2.02452,-1.72331 3.17207,-2.37905 0.72578,-0.41473 1.63139,-0.41919 2.37905,-0.79302 0.85247,-0.42624 1.52659,-1.1598 2.37905,-1.58604 8.89682,-4.4484 -6.00009,4.22165 5.55112,-2.37905 0.82751,-0.47286 1.50303,-1.21059 2.37905,-1.58603 1.00178,-0.42933 2.15157,-0.41033 3.17207,-0.79302 1.10689,-0.41508 2.0918,-1.10591 3.17207,-1.58603 1.30082,-0.57814 2.66426,-1.00789 3.96508,-1.58603 2.70068,-1.20031 5.23968,-2.74214 7.93017,-3.96509 1.29592,-0.58905 2.66917,-0.99698 3.96509,-1.58603 1.6143,-0.73378 3.1438,-1.64528 4.7581,-2.37905 1.29591,-0.58906 2.64339,-1.05736 3.96508,-1.58604 1.3217,-0.52868 2.61463,-1.13588 3.96509,-1.58603 2.06793,-0.68931 4.22942,-1.05736 6.34413,-1.58604 1.05736,-0.26433 2.11472,-0.52867 3.17207,-0.79301 1.05736,-0.26434 2.09059,-0.65783 3.17207,-0.79302 1.83608,-0.22951 3.72592,0.3042 5.55112,0 0.82454,-0.13742 1.55451,-0.65559 2.37905,-0.79302 1.8252,-0.3042 3.71934,0.26169 5.55112,0 0.82751,-0.11821 1.55937,-0.62908 2.37905,-0.79301 0.51841,-0.10369 1.05736,0 1.58603,0 0.79302,0 1.60144,0.15552 2.37905,0 0.57961,-0.11592 1.01261,-0.64966 1.58604,-0.79302 0.51289,-0.12822 1.05735,0 1.58603,0 1.85037,0 3.70075,0 5.55112,0 0.26434,0 0.52868,0 0.79302,0 0.26434,0 0.6061,-0.18692 0.79301,0 0.26141,0.26141 -0.19128,2.5982 0,3.17207 0.11822,0.35465 0.67481,0.43837 0.79302,0.79301 0.16718,0.50155 0,1.05736 0,1.58604 0,0.79301 -0.19233,1.60971 0,2.37905 0.0907,0.36267 0.6748,0.43837 0.79302,0.79302 0.16718,0.50154 0,1.05735 0,1.58603 0,0.52868 0,1.05736 0,1.58603 0,0.35714 0.12067,2.13771 0,2.37905 -0.8767,1.75341 -0.49218,0.24609 -1.58604,0.79302 -0.33436,0.16718 -0.45865,0.62584 -0.79301,0.79302 -0.23643,0.11821 -0.52868,0 -0.79302,0 -0.52868,0 -1.07314,-0.12822 -1.58603,0 -0.57344,0.14336 -1.03723,0.57349 -1.58604,0.79302 -0.77612,0.31045 -1.58603,0.52867 -2.37905,0.79301 -0.79302,0.26434 -1.55451,0.6556 -2.37905,0.79302 -0.78223,0.13037 -1.62673,-0.25077 -2.37905,0 -0.90418,0.30139 -1.52658,1.1598 -2.37905,1.58603 -0.74766,0.37383 -1.60293,0.48257 -2.37905,0.79302 -1.09761,0.43904 -2.11471,1.05736 -3.17207,1.58603 -0.52868,0.26434 -1.09422,0.46515 -1.58603,0.79302 -0.31105,0.20737 -0.45865,0.62584 -0.79302,0.79302 -0.23643,0.11821 -0.55659,-0.11822 -0.79302,0 -0.33436,0.16718 -0.45865,0.62583 -0.79301,0.79301 -0.23644,0.11822 -0.54225,-0.0836 -0.79302,0 -1.1215,0.37384 -2.02521,1.29932 -3.17207,1.58604 -0.51289,0.12822 -1.07314,-0.12822 -1.58603,0 -0.57343,0.14336 -1.03723,0.57349 -1.58604,0.79302 -0.77612,0.31045 -1.62007,0.44272 -2.37905,0.79301 -2.68338,1.23849 -5.28678,2.64339 -7.93017,3.96509 -1.05735,0.52868 -2.08549,1.12036 -3.17206,1.58603 -0.76833,0.32928 -1.66227,0.36294 -2.37906,0.79302 -0.64111,0.38467 -0.94491,1.20136 -1.58603,1.58603 -0.71679,0.43008 -1.60292,0.48257 -2.37905,0.79302 -0.5488,0.21952 -1.09423,0.46514 -1.58603,0.79302 -1.45102,0.96734 -0.0791,1.01105 -2.37906,1.58603 -0.51289,0.12822 -1.06266,-0.0748 -1.58603,0 -1.33432,0.19062 -2.62762,0.62583 -3.96508,0.79302 -0.7869,0.0984 -1.58604,0 -2.37905,0 -2.64339,0 -5.28678,0 -7.93017,0 -0.79302,0 -1.58604,0 -2.37905,0 -0.26434,0 -0.54225,-0.0836 -0.79302,0 -0.56075,0.18691 -1.02529,0.6061 -1.58604,0.79301 -0.25077,0.0836 -0.6061,-0.18691 -0.79301,0 -0.0255,0.0255 0,2.18673 0,2.37905"
       id="path3077"
       inkscape:connector-curvature="0" />
    <path
       style="fill:none;stroke:#d5d5d5;stroke-width:4;stroke-linecap:butt;stroke-linejoin:miter;stroke-miterlimit:4;stroke-opacity:1;stroke-dasharray:none"
       d="m 416.3339,107.08598 c 0.26434,1.05735 0.52868,2.11471 0.79302,3.17207 0.26433,0.26433 0.62583,0.45865 0.79301,0.79301 0.10426,0.20852 0,2.75739 0,3.17207"
       id="path3079"
       inkscape:connector-curvature="0" />
    <path
       style="fill:none;stroke:#d5d5d5;stroke-width:4;stroke-linecap:butt;stroke-linejoin:miter;stroke-miterlimit:4;stroke-opacity:1;stroke-dasharray:none"
       d="m 309.27661,129.29045 c 0,-1.05735 -1.05736,-3.17207 0,-3.17207 1.05736,0 0.94573,3.64494 0,3.17207 -1.27322,-0.63661 -0.79641,-2.78065 -1.58603,-3.96508 -0.32788,-0.49181 -1.09423,-0.46515 -1.58604,-0.79302 -2.26923,-1.51282 1.2146,-0.14857 -2.37905,-1.58603 -0.77612,-0.31045 -1.66226,-0.36295 -2.37905,-0.79302 -2.00399,-2.00399 -0.9173,-1.25167 -3.17207,-2.37905 -3.83905,-1.91953 0.83592,0.62693 -3.17206,-2.37905 -0.47287,-0.35465 -1.11317,-0.43837 -1.58604,-0.79302 -0.59813,-0.4486 -0.94492,-1.20136 -1.58603,-1.58603 -2.66553,-1.59932 -1.82533,0.0188 -3.96509,-1.58604 -1.19626,-0.89719 -1.9758,-2.27487 -3.17206,-3.17206 -1.06273,-0.79705 -2.82272,-1.12909 -3.96509,-1.58604 -0.5488,-0.21952 -1.03723,-0.57349 -1.58603,-0.79302 -2.95567,-1.18226 -1.80244,-0.40376 -4.75811,-1.58603 -0.5488,-0.21952 -1.03723,-0.57349 -1.58603,-0.79302 -2.3102,-0.92408 -4.77622,-1.59207 -7.13715,-2.37905 -0.79302,-0.26434 -1.55451,-0.65559 -2.37905,-0.79301 -0.78223,-0.13037 -1.60144,0.15552 -2.37905,0 -1.74503,-0.34901 -1.81285,-1.35964 -3.17207,-2.379055 -0.47287,-0.354648 -1.05736,-0.528678 -1.58604,-0.793017 -2.81768,-1.408841 -5.82108,-2.011227 -8.72318,-3.172067 -0.54881,-0.219522 -1.03723,-0.573496 -1.58604,-0.793017 -0.77612,-0.310451 -1.55937,-0.629081 -2.37905,-0.793017 -0.51841,-0.103683 -1.05735,0 -1.58603,0 -2.11471,0 -4.22942,0 -6.34414,0 -0.79301,0 -1.58603,0 -2.37905,0 -0.52867,0 -1.07314,0.128223 -1.58603,0 -0.57343,-0.143358 -1.02529,-0.606101 -1.58603,-0.793017 -0.25078,-0.08359 -0.52868,0 -0.79302,0 -0.52868,0 -1.05736,0 -1.58604,0 -2.11471,0 -4.22942,0 -6.34413,0 -0.41469,0 -2.96355,-0.104259 -3.17207,0 -0.33436,0.167182 -0.45865,0.625834 -0.79302,0.793017 -0.23643,0.118216 -0.6061,-0.186916 -0.79301,0 -0.0319,0.03191 0,2.880843 0,3.172068 0,1.729166 0.0608,3.614195 1.58603,4.758105 0.76247,0.57185 1.63482,0.99064 2.37905,1.58603 0.58383,0.46706 0.96394,1.1713 1.58604,1.58603 0.98361,0.65575 2.11471,1.05736 3.17206,1.58604 4.4453,2.22264 2.07446,1.14699 7.13716,3.17207 1.32169,0.52867 2.69186,0.94942 3.96508,1.58603 1.37862,0.68931 2.53398,1.80661 3.96509,2.37905 1.25146,0.50059 2.68638,0.36678 3.96508,0.79302 4.17088,1.39029 2.07047,1.43174 5.55112,3.17207 1.10935,0.55467 2.92571,0.71988 3.96508,1.58603 1.14875,0.95728 2.11472,2.11471 3.17207,3.17207 1.05736,1.05735 2.00442,2.23794 3.17207,3.17206 0.74424,0.59539 1.63481,0.99065 2.37905,1.58604 0.58383,0.46706 1.00221,1.11897 1.58603,1.58603 1.48848,1.19078 3.26963,1.98129 4.75811,3.17207 0.58382,0.46706 0.94491,1.20136 1.58603,1.58603 0.71679,0.43008 1.60292,0.48257 2.37905,0.79302 0.5488,0.21952 1.05736,0.52868 1.58603,0.79302 0.79302,0.26434 1.60293,0.48256 2.37906,0.79302 1.0976,0.43904 2.05057,1.2122 3.17206,1.58603 0.51285,0.17095 3.09919,0 3.96509,0"
       id="path3087"
       inkscape:connector-curvature="0" />
    <path
       style="fill:none;stroke:#d5d5d5;stroke-width:4;stroke-linecap:butt;stroke-linejoin:miter;stroke-miterlimit:4;stroke-opacity:1;stroke-dasharray:none"
       d="m 231.56095,101.53486 c 0.40526,4.78681 -3.012,-0.16007 -3.96509,0.79302 -7.5e-4,7.5e-4 0.001,2.37545 0,2.37905 -0.11821,0.35465 -0.62583,0.45865 -0.79301,0.79301 -1.16685,2.3337 1.83709,-1.04407 -0.79302,1.58604"
       id="path3089"
       inkscape:connector-curvature="0" />
    <path
       style="fill:none;stroke:#d5d5d5;stroke-width:4;stroke-linecap:butt;stroke-linejoin:miter;stroke-miterlimit:4;stroke-opacity:1;stroke-dasharray:none"
       d="m 279.14197,199.86896 c -1.8849,-0.80449 -2.99712,-0.79302 -4.75811,-0.79302 -0.26433,0 -0.54224,-0.0836 -0.79301,0 -0.56075,0.18692 -1.0126,0.64966 -1.58604,0.79302 -1.02578,0.25645 -2.16897,-0.33436 -3.17206,0 -0.35465,0.11822 -0.52868,0.52868 -0.79302,0.79302 -0.52868,0.26434 -1.0126,0.64966 -1.58603,0.79302 -1.02579,0.25644 -2.13525,-0.20737 -3.17207,0 -0.81968,0.16393 -1.55937,0.62908 -2.37905,0.79301 -1.03683,0.20737 -2.14629,-0.25644 -3.17207,0 -0.57343,0.14336 -1.0126,0.64966 -1.58604,0.79302 -1.02578,0.25645 -2.14628,-0.25645 -3.17206,0 -0.57343,0.14336 -1.01261,0.64966 -1.58604,0.79302 -0.51289,0.12822 -1.07314,-0.12823 -1.58603,0 -0.57343,0.14335 -1.0126,0.64965 -1.58603,0.79301 -0.5129,0.12823 -1.08449,-0.16718 -1.58604,0 -0.35465,0.11822 -0.43837,0.6748 -0.79302,0.79302 -0.50154,0.16718 -1.08448,-0.16718 -1.58603,0 -0.35465,0.11822 -0.43035,0.70235 -0.79302,0.79302 -0.76934,0.19233 -1.60143,-0.15553 -2.37905,0 -0.5796,0.11592 -1.00643,0.67709 -1.58603,0.79301 -0.77762,0.15553 -1.59682,-0.13037 -2.37905,0 -0.82454,0.13743 -1.55451,0.6556 -2.37905,0.79302 -0.78223,0.13037 -1.59683,-0.13037 -2.37905,0 -0.82454,0.13742 -1.55937,0.62908 -2.37905,0.79302 -0.51842,0.10368 -1.06763,-0.10368 -1.58604,0 -0.81968,0.16393 -1.55937,0.62908 -2.37905,0.79301 -1.03682,0.20737 -2.14628,-0.25644 -3.17207,0 -0.57343,0.14336 -1.0126,0.64966 -1.58603,0.79302 -0.51289,0.12822 -1.08449,-0.16718 -1.58603,0 -0.35465,0.11822 -0.43837,0.6748 -0.79302,0.79302 -0.50155,0.16718 -1.08449,-0.16718 -1.58604,0 -0.70929,0.23643 -0.87673,1.3496 -1.58603,1.58603 -0.50155,0.16718 -1.08449,-0.16718 -1.58603,0 -0.7093,0.23643 -0.91731,1.25167 -1.58604,1.58604 -0.47286,0.23643 -1.11317,-0.23644 -1.58603,0 -0.33437,0.16718 -0.45865,0.62583 -0.79302,0.79301 -0.23643,0.11822 -0.54224,-0.0836 -0.79302,0 -0.56074,0.18692 -1.02528,0.6061 -1.58603,0.79302 -0.25077,0.0836 -0.55658,-0.11822 -0.79302,0 -0.33436,0.16718 -0.45865,0.62583 -0.79301,0.79302 -0.23643,0.11821 -0.55659,-0.11822 -0.79302,0 -1.80502,1.80502 0.16424,0.20959 -1.58603,0.79301 -5.74416,1.91472 1.25027,-0.22863 -2.37905,1.58604 -0.23644,0.11821 -0.55659,-0.11822 -0.79302,0 -0.33437,0.16718 -0.45865,0.62583 -0.79302,0.79301 -0.23643,0.11822 -0.54224,-0.0836 -0.79302,0 -1.12149,0.37384 -2.05057,1.21221 -3.17206,1.58604 -0.25078,0.0836 -0.55659,-0.11822 -0.79302,0 -0.33437,0.16718 -0.45865,0.62583 -0.79302,0.79302 -0.23643,0.11821 -0.55658,-0.11822 -0.79301,0 -0.95162,0.47581 -1.42743,1.90324 -2.37905,2.37905 -0.23644,0.11821 -0.55659,-0.11822 -0.79302,0 -0.66873,0.33436 -0.91731,1.25167 -1.58604,1.58603 -0.47286,0.23643 -1.2122,-0.37383 -1.58603,0 -1.64078,1.64078 2.50733,-0.0641 -0.79302,1.58603 -0.23643,0.11822 -0.6061,-0.18691 -0.79301,0 -0.18692,0.18692 0.11821,0.55659 0,0.79302 -0.47581,0.95162 -1.90324,1.42743 -2.37905,2.37905 -0.11822,0.23643 0.18691,0.6061 0,0.79302 -0.18692,0.18692 -0.60611,-0.18692 -0.79302,0 -0.18692,0.18692 0,0.52868 0,0.79302 0,0.35714 -0.12067,2.1377 0,2.37905 0.16718,0.33436 0.52868,0.52867 0.79302,0.79301 0.26433,0.26434 0.45865,0.62584 0.79301,0.79302 0.23643,0.11822 0.6061,-0.18692 0.79302,0 0.18692,0.18692 -0.18692,0.6061 0,0.79302 0.18692,0.18691 0.55658,-0.11822 0.79302,0 0.33436,0.16718 0.45865,0.62583 0.79301,0.79301 0.23644,0.11822 0.6061,-0.18691 0.79302,0 0.18692,0.18692 -0.18692,0.60611 0,0.79302 0.39651,0.39651 1.98254,-0.39651 2.37905,0 0.18692,0.18692 -0.23643,0.6748 0,0.79302 0.12408,0.062 3.74338,0 3.96509,0 2.64339,0 5.28678,0 7.93017,0 3.17206,0 6.34413,0 9.5162,0 0.58214,0 4.48163,0.13823 4.7581,0 0.33437,-0.16718 0.43837,-0.6748 0.79302,-0.79302 1.00309,-0.33436 2.16897,0.33437 3.17207,0 0.35464,-0.11821 0.43836,-0.6748 0.79301,-0.79302 0.98489,-0.32829 2.92242,0.26067 3.96509,0 0.57343,-0.14335 1.02528,-0.6061 1.58603,-0.79301 0.84267,-0.28089 2.3294,0.28089 3.17207,0 0.56075,-0.18692 1.0126,-0.64966 1.58603,-0.79302 0.5129,-0.12822 1.05736,0 1.58604,0 1.32169,0 2.66905,0.25921 3.96508,0 0.5796,-0.11592 1.00643,-0.6771 1.58604,-0.79302 1.29602,-0.2592 2.68285,0.32056 3.96508,0 0.57343,-0.14335 1.0126,-0.64966 1.58603,-0.79301 1.02579,-0.25645 2.14629,0.25644 3.17207,0 0.57343,-0.14336 1.02529,-0.6061 1.58604,-0.79302 0.25077,-0.0836 0.52867,0 0.79301,0 0.66407,0 3.36202,0.15077 3.96509,0 0.57343,-0.14336 1.0126,-0.64966 1.58603,-0.79302 1.28223,-0.32056 2.66906,0.25921 3.96509,0 0.5796,-0.11592 1.05735,-0.52867 1.58603,-0.79301 0.79302,0 1.60143,0.15552 2.37905,0 0.5796,-0.11592 1.02529,-0.6061 1.58603,-0.79302 1.18953,-0.39651 0.79302,0.79302 2.37906,0 0.23643,-0.11822 -0.18692,-0.6061 0,-0.79302 0.21698,-0.21698 2.74186,0.2151 3.17206,0 0.33437,-0.16718 0.52868,-0.52868 0.79302,-0.79301 0.52868,0 1.08449,0.16718 1.58603,0 0.35465,-0.11822 0.43837,-0.67481 0.79302,-0.79302 0.50155,-0.16718 1.07314,0.12822 1.58603,0 0.57344,-0.14336 1.02529,-0.6061 1.58604,-0.79302 0.25077,-0.0836 0.55658,0.11822 0.79302,0 0.33436,-0.16718 0.45865,-0.62583 0.79301,-0.79302 0.23643,-0.11821 0.55659,0.11822 0.79302,0 0.33436,-0.16718 0.45865,-0.62583 0.79302,-0.79301 0.23643,-0.11822 0.55658,0.11821 0.79301,0 1.95987,-0.97994 -0.27373,-0.79302 1.58604,-0.79302"
       id="path3119"
       inkscape:connector-curvature="0" />
    <path
       style="fill:none;stroke:#d5d5d5;stroke-width:4;stroke-linecap:butt;stroke-linejoin:miter;stroke-miterlimit:4;stroke-opacity:1;stroke-dasharray:none"
       d="m 205.39139,230.79662 c -0.52868,1.05736 -1.2122,2.05057 -1.58603,3.17207 -0.15466,0.46398 0,4.07743 0,4.7581 0,0.26434 0,0.52868 0,0.79302 0,0.26434 -0.18692,0.6061 0,0.79302 0.18691,0.18691 0.52867,0 0.79301,0"
       id="path3121"
       inkscape:connector-curvature="0" />
  </g>
</svg>
